#!OML:ASF I:\Actors\actors\Patient Classification 2\Patient 1\Session 1\actor1.ASF
:FULLY-SPECIFIED
:DEGREES
486
root -0.918474 18.7646 5.39817 1.74381 5.93407 -3.25359
lowerback 11.0316 -0.197538 0.949079
upperback -0.18309 -0.0667753 1.10117
thorax -6.38963 -0.0442835 0.632353
lowerneck -18.5319 -4.15963 -3.25863
upperneck 16.4088 -6.02686 5.9563
head 8.44743 -2.43237 1.77217
rclavicle -1.14301e-014 -7.65321e-015
rhumerus 2.02226 38.0575 -43.7593
rradius 105.272
rwrist -40.9733
rhand 12.385 -50.0935
rfingers 7.12502
rthumb 37.3847 -76.0575
lclavicle -1.14301e-014 -7.65321e-015
lhumerus 5.58164 -38.8696 83.1339
lradius 86.889
lwrist 50.2656
lhand -27.4947 -5.31191
lfingers 7.12502
lthumb -0.897897 24.6659
rfemur 6.36828 -7.50465 17.7833
rtibia 1.43125e-014
rfoot -15.3191 -9.02411
rtoes -0.260878
lfemur -8.94601 -6.8567 -9.40605
ltibia 22.1703
lfoot -18.5177 9.65446
ltoes -56.795
487
root -0.921193 18.7666 5.40033 1.82934 5.66846 -3.22894
lowerback 10.9621 -0.129281 0.782794
upperback -0.267272 0.00792207 1.18429
thorax -6.43986 -0.00101713 0.801476
lowerneck -18.3664 -4.09949 -3.29271
upperneck 16.4486 -5.91169 5.81702
head 8.42188 -2.3975 1.74832
rclavicle -8.8894e-015 -2.41523e-014
rhumerus 2.54618 36.8538 -44.1602
rradius 105.95
rwrist -41.8302
rhand 11.136 -49.1689
rfingers 7.12502
rthumb 36.203 -75.4353
lclavicle -8.8894e-015 -2.41523e-014
lhumerus 5.04863 -38.9507 83.368
lradius 87.0568
lwrist 50.4112
lhand -27.5015 -5.17979
lfingers 7.12502
lthumb -0.904475 24.798
rfemur 6.23416 -7.26427 17.7847
rtibia 1.27222e-014
rfoot -15.2493 -9.07443
rtoes -0.433423
lfemur -8.92969 -6.84923 -9.42897
ltibia 22.1366
lfoot -18.6334 9.82745
ltoes -56.6402
488
root -0.923844 18.768 5.4005 1.8976 5.3186 -3.20057
lowerback 10.9111 -0.0585728 0.674032
upperback -0.337837 0.0909999 1.22845
thorax -6.48672 0.0439885 0.895892
lowerneck -18.2744 -4.01432 -3.33714
upperneck 16.5526 -5.77206 5.72833
head 8.43199 -2.34392 1.74533
rclavicle -4.66523e-015 7.45443e-016
rhumerus 3.3295 35.5083 -44.7029
rradius 105.956
rwrist -42.65
rhand 10.0137 -48.8279
rfingers 7.12502
rthumb 35.1393 -75.3513
lclavicle -4.66523e-015 7.45443e-016
lhumerus 4.54707 -39.0109 83.5681
lradius 87.264
lwrist 50.5946
lhand -27.6055 -5.00757
lfingers 7.12502
lthumb -1.00487 24.9698
rfemur 6.10037 -6.93963 17.7841
rtibia -1.59028e-015
rfoot -15.1823 -9.12989
rtoes -0.547932
lfemur -8.86606 -6.8104 -9.46506
ltibia 22.0901
lfoot -18.7781 10.0652
ltoes -56.5389
489
root -0.926307 18.7675 5.39994 1.89411 4.86493 -3.18038
lowerback 10.9382 0.0533122 0.598008
upperback -0.385783 0.232166 1.24516
thorax -6.55474 0.115958 0.933591
lowerneck -18.1929 -3.91855 -3.34033
upperneck 16.6411 -5.6289 5.64471
head 8.43768 -2.28558 1.73757
rclavicle -1.13494e-014 7.05686e-015
rhumerus 4.22598 34.001 -45.4216
rradius 105.215
rwrist -42.8867
rhand 9.15863 -48.8226
rfingers 7.12502
rthumb 34.3279 -75.5329
lclavicle -1.13494e-014 7.05686e-015
lhumerus 3.9965 -39.0807 83.8184
lradius 87.556
lwrist 50.7304
lhand -27.7828 -5.035
lfingers 7.12502
lthumb -1.17616 24.9415
rfemur 6.03383 -6.50898 17.786
rtibia -9.54166e-015
rfoot -15.1449 -9.16986
rtoes -0.719303
lfemur -8.68783 -6.7681 -9.50871
ltibia 22.0288
lfoot -18.9506 10.4075
ltoes -56.4417
490
root -0.928507 18.7677 5.40095 1.89236 4.37102 -3.13709
lowerback 10.9254 0.185271 0.574258
upperback -0.419338 0.400429 1.17819
thorax -6.58469 0.197915 0.849034
lowerneck -18.1114 -3.83832 -3.25701
upperneck 16.6992 -5.53902 5.60944
head 8.43506 -2.24218 1.72494
rclavicle 7.237e-015 -2.98177e-015
rhumerus 5.10086 32.4652 -46.3068
rradius 103.806
rwrist -42.1494
rhand 7.97957 -48.4327
rfingers 7.12502
rthumb 33.2076 -75.3889
lclavicle 7.237e-015 -2.98177e-015
lhumerus 3.45161 -39.1572 84.0513
lradius 87.9043
lwrist 50.836
lhand -27.8975 -5.16335
lfingers 7.12502
lthumb -1.28695 24.8125
rfemur 5.97393 -6.03847 17.7583
rtibia -1.11319e-014
rfoot -15.1052 -9.20602
rtoes -0.958705
lfemur -8.48253 -6.70109 -9.58223
ltibia 21.9627
lfoot -19.1314 10.7546
ltoes -56.3497
491
root -0.929833 18.7696 5.40047 1.95049 3.89434 -3.05359
lowerback 10.8368 0.314471 0.618048
upperback -0.44745 0.566741 1.02246
thorax -6.56397 0.275026 0.633566
lowerneck -18.1049 -3.80064 -3.14161
upperneck 16.8005 -5.53296 5.64911
head 8.46607 -2.22618 1.72046
rclavicle -1.39274e-014 -1.94809e-014
rhumerus 6.03801 31.0593 -47.1842
rradius 101.819
rwrist -40.5225
rhand 6.59805 -47.6307
rfingers 7.12502
rthumb 31.893 -74.858
lclavicle -1.39274e-014 -1.94809e-014
lhumerus 3.08349 -39.2452 84.1683
lradius 88.2291
lwrist 50.8521
lhand -27.8282 -5.2452
lfingers 7.12502
lthumb -1.21996 24.7311
rfemur 5.84619 -5.58718 17.6837
rtibia -4.77083e-015
rfoot -15.0393 -9.24477
rtoes -1.28478
lfemur -8.34908 -6.60233 -9.6988
ltibia 21.8883
lfoot -19.254 11.0787
ltoes -56.3122
492
root -0.931154 18.7712 5.39716 2.00852 3.3955 -3.02516
lowerback 10.7353 0.461853 0.743194
upperback -0.444255 0.767065 0.865876
thorax -6.50055 0.366188 0.366516
lowerneck -18.1991 -3.81324 -3.06842
upperneck 16.9341 -5.59889 5.75567
head 8.53284 -2.23718 1.7348
rclavicle -1.56543e-015 3.18055e-015
rhumerus 7.10236 29.8433 -47.8572
rradius 99.3813
rwrist -38.6119
rhand 5.20253 -46.9601
rfingers 7.12502
rthumb 30.5631 -74.4439
lclavicle -1.56543e-015 3.18055e-015
lhumerus 2.88234 -39.3374 84.2282
lradius 88.5701
lwrist 50.7823
lhand -27.6983 -5.37048
lfingers 7.12502
lthumb -1.09455 24.6065
rfemur 5.69773 -5.11257 17.6702
rtibia 9.54166e-015
rfoot -14.9392 -9.30184
rtoes -1.86297
lfemur -8.23004 -6.44784 -9.75777
ltibia 21.7993
lfoot -19.2804 11.4386
ltoes -56.3543
493
root -0.93921 18.7707 5.3978 1.96182 3.02122 -3.01029
lowerback 10.6769 0.58377 0.830079
upperback -0.388748 0.928288 0.705802
thorax -6.40474 0.439834 0.124298
lowerneck -18.2925 -3.84502 -2.97257
upperneck 16.9868 -5.6958 5.87434
head 8.57348 -2.26118 1.74536
rclavicle 2.40405e-014 1.55052e-014
rhumerus 8.08655 28.8636 -48.3899
rradius 96.7313
rwrist -37.1308
rhand 4.14723 -46.8701
rfingers 7.12502
rthumb 29.5563 -74.5368
lclavicle 2.40405e-014 1.55052e-014
lhumerus 2.80791 -39.4456 84.2172
lradius 88.9415
lwrist 50.697
lhand -27.6582 -5.46275
lfingers 7.12502
lthumb -1.05582 24.5144
rfemur 5.71986 -4.76139 17.6871
rtibia 9.54166e-015
rfoot -14.888 -9.30206
rtoes -2.09623
lfemur -8.01415 -6.21252 -9.76846
ltibia 21.7076
lfoot -19.2797 11.5993
ltoes -56.3984
494
root -0.951838 18.7678 5.40233 1.82276 2.81787 -2.94588
lowerback 10.7077 0.6393 0.9031
upperback -0.346083 0.996571 0.479462
thorax -6.37132 0.467195 -0.165404
lowerneck -18.2781 -3.82871 -2.74316
upperneck 17 -5.74471 5.90717
head 8.57264 -2.26565 1.71273
rclavicle -4.91992e-015 -4.77083e-015
rhumerus 8.75621 28.2831 -49.0037
rradius 94.0932
rwrist -36.1651
rhand 3.54312 -47.2792
rfingers 7.12502
rthumb 28.9794 -75.0465
lclavicle -4.91992e-015 -4.77083e-015
lhumerus 2.7125 -39.5501 84.1212
lradius 89.3085
lwrist 50.6096
lhand -27.6397 -5.57381
lfingers 7.12502
lthumb -1.03794 24.4034
rfemur 5.90271 -4.58032 17.6545
rtibia 3.18055e-015
rfoot -14.9475 -9.20277
rtoes -1.58766
lfemur -7.7239 -5.99516 -9.80771
ltibia 21.6295
lfoot -19.3257 11.5655
ltoes -56.367
495
root -0.957804 18.7657 5.40349 1.72584 2.61435 -2.89878
lowerback 10.7265 0.722707 0.809833
upperback -0.33418 1.09397 0.450935
thorax -6.36968 0.517496 -0.158537
lowerneck -18.2688 -3.778 -2.56859
upperneck 17.0834 -5.67577 5.66275
head 8.58258 -2.24619 1.6109
rclavicle -1.63997e-015 -7.7526e-015
rhumerus 9.37988 28.2654 -49.1363
rradius 91.5111
rwrist -35.3543
rhand 3.08165 -47.7128
rfingers 7.12502
rthumb 28.5386 -75.555
lclavicle -1.63997e-015 -7.7526e-015
lhumerus 2.57223 -39.4578 84.3664
lradius 89.6178
lwrist 50.5094
lhand -27.5789 -5.6503
lfingers 7.12502
lthumb -0.979177 24.3272
rfemur 6.00819 -4.39662 17.6174
rtibia -2.54444e-014
rfoot -14.9787 -9.14571
rtoes -1.39754
lfemur -7.50769 -5.87207 -9.86072
ltibia 21.5698
lfoot -19.3966 11.6437
ltoes -56.3366
496
root -0.959718 18.7657 5.40174 1.68616 2.45475 -2.87544
lowerback 10.7122 0.804654 0.783623
upperback -0.330307 1.19822 0.431737
thorax -6.35685 0.569187 -0.180327
lowerneck -18.2613 -3.75903 -2.49702
upperneck 17.1327 -5.64266 5.52442
head 8.58967 -2.23976 1.55696
rclavicle 2.70844e-015 6.55989e-015
rhumerus 9.7725 28.7137 -48.8893
rradius 89.2584
rwrist -34.3976
rhand 2.75168 -48.2326
rfingers 7.12502
rthumb 28.2232 -76.1272
lclavicle 2.70844e-015 6.55989e-015
lhumerus 2.57187 -39.3438 84.5987
lradius 89.8329
lwrist 50.4286
lhand -27.5251 -5.63578
lfingers 7.12502
lthumb -0.92725 24.3419
rfemur 6.02904 -4.25653 17.5988
rtibia 0
rfoot -14.9271 -9.174
rtoes -1.74801
lfemur -7.40416 -5.80376 -9.89981
ltibia 21.5373
lfoot -19.4399 11.7409
ltoes -56.2841
497
root -0.963549 18.7657 5.4008 1.62622 2.45181 -2.87013
lowerback 10.6826 0.852377 0.723631
upperback -0.303807 1.25393 0.437665
thorax -6.3131 0.598833 -0.148477
lowerneck -18.1888 -3.7846 -2.556
upperneck 17.1087 -5.66585 5.54621
head 8.57209 -2.25407 1.57187
rclavicle -7.20594e-016 -6.16232e-015
rhumerus 9.71831 29.6391 -48.3365
rradius 87.734
rwrist -33.3347
rhand 2.71292 -48.8702
rfingers 7.12502
rthumb 28.1862 -76.771
lclavicle -7.20594e-016 -6.16232e-015
lhumerus 2.68824 -39.2576 84.7936
lradius 89.944
lwrist 50.3159
lhand -27.5088 -5.85622
lfingers 7.12502
lthumb -0.911477 24.1216
rfemur 6.08786 -4.27252 17.6071
rtibia -2.54444e-014
rfoot -14.8704 -9.21078
rtoes -2.18876
lfemur -7.34302 -5.7711 -9.90055
ltibia 21.543
lfoot -19.4348 11.7013
ltoes -56.2076
498
root -0.96769 18.7645 5.40274 1.54174 2.61852 -2.89998
lowerback 10.6077 0.826699 0.719569
upperback -0.238236 1.21784 0.437636
thorax -6.2017 0.581987 -0.13867
lowerneck -18.1478 -3.80307 -2.55802
upperneck 17.0964 -5.69483 5.56628
head 8.56268 -2.2667 1.57572
rclavicle 4.14963e-015 3.57812e-015
rhumerus 9.20783 30.8777 -47.7872
rradius 87.0918
rwrist -32.5195
rhand 3.21423 -49.5178
rfingers 7.12502
rthumb 28.6652 -77.3387
lclavicle 4.14963e-015 3.57812e-015
lhumerus 2.87864 -39.1824 84.8443
lradius 89.9953
lwrist 50.1786
lhand -27.4449 -6.12617
lfingers 7.12502
lthumb -0.84982 23.8519
rfemur 6.20635 -4.45598 17.6454
rtibia -1.43125e-014
rfoot -14.8622 -9.20529
rtoes -2.47032
lfemur -7.32139 -5.79256 -9.85552
ltibia 21.587
lfoot -19.3898 11.6081
ltoes -56.2778
499
root -0.970183 18.7631 5.40787 1.47299 2.98078 -2.93217
lowerback 10.4373 0.714499 0.840798
upperback -0.138364 1.07669 0.372854
thorax -5.99742 0.509328 -0.249349
lowerneck -18.0976 -3.83752 -2.60494
upperneck 17.0236 -5.7736 5.79024
head 8.54198 -2.28553 1.64929
rclavicle -3.70236e-015 -9.54166e-015
rhumerus 8.28272 32.2359 -47.2941
rradius 87.5015
rwrist -32.7364
rhand 4.25145 -50.7063
rfingers 7.12502
rthumb 29.6557 -78.3553
lclavicle -3.70236e-015 -9.54166e-015
lhumerus 3.17063 -39.127 84.6727
lradius 90.0275
lwrist 50.0102
lhand -27.3159 -6.10796
lfingers 7.12502
lthumb -0.725239 23.8706
rfemur 6.35578 -4.8344 17.673
rtibia -1.59028e-015
rfoot -14.9071 -9.13942
rtoes -2.21309
lfemur -7.38406 -5.89438 -9.79807
ltibia 21.6712
lfoot -19.3084 11.4445
ltoes -56.4664
